<?xml version="1.0" standalone="no"?>
<!DOCTYPE svg PUBLIC "-//W3C//DTD SVG 20010904//EN"
 "http://www.w3.org/TR/2001/REC-SVG-20010904/DTD/svg10.dtd">
<svg version="1.0" xmlns="http://www.w3.org/2000/svg"
 width="669.594385pt" height="509.876485pt" viewBox="0 0 669.594385 509.876485"
 preserveAspectRatio="xMidYMid meet">
<metadata>
Created by potrace 1.12, written by Peter Selinger 2001-2015
</metadata>
<g transform="translate(-168.220436,766.000000) scale(0.100000,-0.100000)"
fill="#000000" stroke="none">
<path d="M7534 7648 c-43 -20 -62 -100 -33 -134 32 -39 62 -44 274 -44 l207 0
-94 -99 c-51 -55 -162 -171 -245 -260 -135 -141 -153 -164 -153 -193 0 -19 7
-43 15 -54 29 -42 54 -45 402 -42 l331 3 26 24 c36 34 36 97 1 135 l-24 26
-216 0 c-128 0 -215 4 -213 9 2 5 104 114 228 242 124 127 230 241 237 253 22
38 16 85 -16 117 l-29 29 -339 -1 c-211 0 -346 -4 -359 -11z"/>
<path d="M2149 7247 c-39 -26 -166 -209 -232 -335 -99 -191 -181 -442 -212
-653 -69 -478 17 -891 263 -1261 58 -89 183 -242 224 -276 14 -11 14 -20 -3
-90 -62 -264 -44 -604 47 -887 67 -210 214 -452 379 -624 314 -326 707 -506
1205 -551 89 -8 648 -10 1930 -8 2013 4 1833 -3 1989 74 95 47 186 136 231
227 91 185 25 360 -171 456 l-78 38 37 17 c80 38 210 134 292 216 95 94 171
202 229 324 150 315 129 702 -57 1023 -27 47 -46 99 -62 167 -72 316 -261 812
-337 882 -31 29 -71 31 -121 5 -53 -27 -257 -225 -364 -353 -50 -59 -96 -108
-102 -108 -7 0 -52 9 -101 20 -225 48 -505 48 -721 -2 -86 -20 -97 -20 -105
-6 -48 86 -238 293 -359 390 -162 130 -208 107 -330 -163 -28 -63 -70 -170
-92 -239 -23 -69 -42 -126 -43 -128 -1 -1 -53 32 -116 73 -386 257 -840 431
-1241 474 -124 14 -359 14 -468 1 -170 -21 -389 -84 -534 -154 -169 -82 -351
-213 -480 -345 l-78 -81 -47 52 c-268 298 -380 563 -397 943 -11 243 29 433
141 661 30 62 55 121 55 132 0 38 -19 72 -52 92 -43 26 -77 25 -119 -3z m-189
-1118 c44 -264 160 -515 338 -734 35 -44 87 -100 113 -125 l49 -45 -46 -70
c-25 -38 -66 -110 -91 -159 l-45 -90 -37 44 c-178 211 -286 429 -343 693 -19
87 -22 134 -23 312 0 186 3 224 25 330 l25 120 8 -80 c4 -44 16 -132 27 -196z
m4004 -461 c61 -62 143 -156 182 -208 40 -52 81 -103 92 -114 25 -22 61 -19
212 19 199 50 498 45 719 -11 99 -25 128 -28 155 -18 8 3 59 61 113 127 53 67
141 167 194 222 l97 99 36 -78 c72 -156 188 -516 231 -716 4 -19 32 -81 61
-136 104 -194 140 -346 131 -542 -6 -138 -23 -206 -78 -321 -105 -221 -289
-390 -545 -500 -211 -91 -453 -126 -819 -118 -260 5 -375 19 -563 68 -201 52
-334 116 -475 229 -219 176 -337 419 -337 696 0 168 39 305 136 476 39 70 61
122 75 185 33 139 97 365 135 473 43 124 114 280 127 280 5 0 60 -51 121 -112z
m-1724 77 c386 -73 710 -211 1065 -453 61 -41 113 -78 118 -82 4 -3 -3 -51
-16 -106 -18 -74 -37 -122 -75 -188 -180 -313 -198 -684 -48 -1002 61 -129
116 -206 220 -310 215 -213 486 -337 870 -395 199 -31 568 -37 832 -14 331 28
470 7 566 -85 44 -43 48 -50 48 -95 0 -125 -137 -236 -328 -265 -102 -16
-3620 -8 -3727 9 -470 71 -824 256 -1080 563 -133 158 -247 374 -294 552 -63
240 -67 512 -12 731 149 592 620 1038 1211 1145 89 17 140 19 335 16 155 -3
258 -10 315 -21z"/>
<path d="M5856 4398 c-34 -28 -39 -82 -12 -122 26 -40 130 -104 209 -128 56
-17 86 -20 159 -16 76 5 100 11 162 42 90 44 156 111 156 157 0 21 -10 40 -30
61 -26 26 -36 30 -66 25 -19 -3 -53 -21 -77 -40 -60 -50 -112 -69 -183 -70
-70 0 -132 24 -186 72 -50 44 -96 50 -132 19z"/>
<path d="M7066 4397 c-45 -45 -29 -119 36 -169 135 -103 327 -128 470 -61 77
36 168 118 168 152 0 56 -56 109 -103 98 -13 -4 -41 -21 -63 -38 -61 -49 -119
-72 -188 -71 -71 0 -113 15 -180 66 -65 50 -106 57 -140 23z"/>
<path d="M6606 4029 c-20 -16 -26 -29 -26 -60 0 -53 19 -86 74 -132 54 -45 57
-67 17 -108 -38 -37 -72 -37 -136 1 -61 36 -79 37 -110 5 -32 -31 -32 -66 1
-105 72 -85 204 -108 305 -54 l55 30 42 -27 c92 -58 211 -43 290 36 35 36 42
48 37 67 -20 63 -67 79 -129 43 -55 -32 -96 -32 -135 1 -44 37 -40 64 17 114
57 51 71 74 72 121 0 26 -7 44 -26 63 -26 26 -28 26 -174 26 -134 0 -150 -2
-174 -21z"/>
<path d="M6644 6866 c-60 -27 -69 -119 -16 -154 21 -14 57 -18 181 -22 l156
-5 -105 -110 c-58 -61 -142 -152 -187 -203 -96 -106 -104 -133 -54 -183 l29
-29 277 0 277 0 29 29 c20 20 29 39 29 61 0 22 -9 41 -29 61 l-29 29 -157 0
-157 0 143 153 c229 243 229 242 229 282 0 24 -9 44 -29 67 l-29 33 -264 2
c-205 2 -270 0 -294 -11z"/>
</g>
</svg>
